{"title":"Rebound.R5.XVID.READNFO.IMAGiNE","uid":5129146,"size":1503995477,"categoryP":"video","categoryS":"movies","magnet":"?xt=urn:btih:51a8606a33a8199056a036a1b9a42a41c113f003&amp;dn=Rebound.R5.XVID.READNFO.IMAGiNE&amp;tr=udp%3A%2F%2Ftracker.openbittorrent.com%3A80&amp;tr=udp%3A%2F%2Fopen.demonii.com%3A1337&amp;tr=udp%3A%2F%2Ftracker.coppersurfer.tk%3A6969&amp;tr=udp%3A%2F%2Fexodus.desync.com%3A6969","seeders":0,"leechers":1,"uploader":".BONE.","files":100,"time":1255972435,"description":"\nRipper ...........: IMAGiNE                                     \nIMDB Rating.......:7.6/10                            \nVideo Codec.......: XVID                                        \nRelease Date......:06/10/09\nAudio Codec.......:MP3                                          \nTheatre Date......:??/??/10\nAudio Bitrate.....:128                                          \nRuntime.......:1h 42mn\nSubtitles.........:NIL                                          Language..........:ENGLISH\nResolution...... 624 x 240                                      \n\nDETAILS:\n\nVideo\nID                               : 0\nFormat                           : MPEG-4 Visual\nFormat profile                   : Advanced Simple@L5\nFormat settings, BVOP            : Yes\nFormat settings, QPel            : No\nFormat settings, GMC             : No warppoints\nFormat settings, Matrix          : Default (H.263)\nCodec ID                         : XVID\nCodec ID/Hint                    : XviD\nDuration                         : 1h 29mn\nBit rate                         : 955 Kbps\nWidth                            : 624 pixels\nHeight                           : 240 pixels\nDisplay aspect ratio             : 2.600\nFrame rate                       : 25.000 fps\nResolution                       : 24 bits\nColorimetry                      : 4:2:0\nScan type                        : Progressive\nBits/(Pixel*Frame)               : 0.255\nStream size                      : 611 MiB (87%)\nWriting library                  : XviD 1.2.0.dev47 (UTC 2006-11-01)\n\nAudio\nID                               : 1\nFormat                           : MPEG Audio\nFormat version                   : Version 1\nFormat profile                   : Layer 3\nCodec ID                         : 55\nCodec ID/Hint                    : MP3\nDuration                         : 1h 29mn\nBit rate mode                    : Constant\nBit rate                         : 128 Kbps\nChannel(s)                       : 2 channels\nSampling rate                    : 44.1 KHz\nResolution                       : 16 bits\nStream size                      : 81.9 MiB (12%)\nAlignment                        : Split accross interleaves\nInterleave, duration             : 40 ms (1.00 video frame)\nInterleave, preload duration     : 500 ms\n******************************************************\n\nDirected By: Bart Freundlich \nStarring: Catherine Zeta-Jones, Justin Bartha, Joanna Gleason, Lynn Whitfield \n\nIn New York City, a single mom captivates her new neighbor, a much younger man.\n &lt;a href=&quot;\nhttp://www.imdb.com/title/tt1205535/&quot; rel=&quot;nofollow&quot; target=&quot;_NEW&quot;&gt;\nhttp://www.imdb.com/title/tt1205535/&lt;/a&gt;\n\nscreens \n &lt;a href=&quot;\nhttp://img.scenereleases.info/image-A0F1_4ADC594A.jpg&quot; rel=&quot;nofollow&quot; target=&quot;_NEW&quot;&gt;\nhttp://img.scenereleases.info/image-A0F1_4ADC594A.jpg&lt;/a&gt;\n &lt;a href=&quot;\nhttp://img.scenereleases.info/image-D12B_4ADC594A.jpg&quot; rel=&quot;nofollow&quot; target=&quot;_NEW&quot;&gt;\nhttp://img.scenereleases.info/image-D12B_4ADC594A.jpg&lt;/a&gt;\n &lt;a href=&quot;\nhttp://img.scenereleases.info/image-9BC4_4ADC5991.jpg&quot; rel=&quot;nofollow&quot; target=&quot;_NEW&quot;&gt;\nhttp://img.scenereleases.info/image-9BC4_4ADC5991.jpg&lt;/a&gt;","torrent":{"xt":"urn:btih:51a8606a33a8199056a036a1b9a42a41c113f003","amp;dn":"Rebound.R5.XVID.READNFO.IMAGiNE","amp;tr":["udp%3A%2F%2Ftracker.openbittorrent.com%3A80","udp%3A%2F%2Fopen.demonii.com%3A1337","udp%3A%2F%2Ftracker.coppersurfer.tk%3A6969","udp%3A%2F%2Fexodus.desync.com%3A6969"],"infoHash":"51a8606a33a8199056a036a1b9a42a41c113f003","infoHashBuffer":{"type":"Buffer","data":[81,168,96,106,51,168,25,144,86,160,54,161,185,164,42,65,193,19,240,3]},"announce":[],"urlList":[]}}